<svg xmlns="http://www.w3.org/2000/svg" width="483.78" height="483.78" viewBox="0 0 128 128" xmlns:v="https://vecta.io/nano"><style><![CDATA[.B{fill:none}.C{font-family:HvDTrial Mikado}.D{stroke-linejoin:round}.E{color-interpolation-filters:sRGB}.F{flood-opacity:.502}.G{flood-color:#373737}.H{stroke-width:4.372}]]></style><defs><filter id="A" x="-.149" y="-.141" width="1.707" height="1.539" class="E"><feFlood result="A" class="F G"/><feGaussianBlur in="SourceGraphic" stdDeviation="0"/><feOffset dx="6.000000" dy="4.000000"/><feComposite operator="in" in="A"/><feComposite in="SourceGraphic"/></filter><filter id="B" x="-.02" y="-.088" width="1.145" height="1.251" class="E"><feFlood result="A" class="F G"/><feGaussianBlur in="SourceGraphic" stdDeviation="0"/><feOffset dx="6.000000" dy="4.000000"/><feComposite operator="in" in="A"/><feComposite in="SourceGraphic"/></filter><filter id="C" x="-.149" y="-.146" width="1.707" height="1.559" class="E"><feFlood result="A" class="F G"/><feGaussianBlur in="SourceGraphic" stdDeviation="0"/><feOffset dx="6.000000" dy="4.000000"/><feComposite operator="in" in="A"/><feComposite in="SourceGraphic"/></filter></defs><circle cx="64" cy="64" r="58.5" fill="#4c4c4c"/><circle cx="64" cy="64" r="60" stroke="#373737" stroke-width="4" class="B"/><g filter="url(#A)" class="B C"><text xml:space="preserve" x="16.653" y="70.81" font-size="23.446" stroke="#f08117"><tspan x="16.653" y="70.81" class="D H">&lt;</tspan></text><text xml:space="preserve" x="9.876" y="70.079" transform="matrix(.874491 0 0 .874491 8.016285 6.526465)" font-size="26.811" stroke="#f8c365"><tspan x="9.876" y="70.079" stroke-width="5" class="D">&lt;</tspan></text></g><g filter="url(#B)" class="B"><g stroke="#d4d4d4" stroke-width="1.855"><path d="M91.934 84.343h.649v1.724h-.649z"/><path d="M35.388 84.036h.649v1.724h-.649z"/></g><text xml:space="preserve" x="38.028" y="83.717" transform="scale(.95630188 1.0456949)" font-size="66.62" stroke="#d4d4d4"><tspan x="38.028" y="83.717" font-weight="normal" stroke-width="9.454" class="C D">M</tspan></text><text xml:space="preserve" x="33.9" y="87.75" transform="matrix(.836277 0 0 .914451 8.016285 3.783112)" font-size="76.181" stroke="#fff"><tspan x="33.9" y="87.75" font-weight="normal" stroke-width="10.811" class="C D">M</tspan></text></g><g filter="url(#C)" class="B C"><text xml:space="preserve" x="93.608" y="70.81" font-size="23.446" stroke="#f08117"><tspan x="93.608" y="70.81" class="D H">&gt;</tspan></text><text xml:space="preserve" x="97.876" y="70.731" transform="matrix(.874491 0 0 .874491 8.016285 6.526465)" font-size="26.811" stroke="#f8c365"><tspan x="97.876" y="70.731" stroke-width="5" class="D">&gt;</tspan></text></g></svg>