<svg xmlns="http://www.w3.org/2000/svg" width="483.78" height="483.78" viewBox="0 0 128 128" xmlns:v="https://vecta.io/nano"><style><![CDATA[.B{stroke:#373737}.C{fill:none}.D{stroke:#6b5a83}.E{stroke-linejoin:round}.F{clip-path:none}.G{stroke-width:4}.H{color-interpolation-filters:sRGB}.I{flood-opacity:.498}.J{flood-color:#373737}.K{fill:#6b5a83}]]></style><defs><filter id="A" x="-.018" y="-.027" width="1.098" height="1.116" class="H"><feFlood result="A" class="I J"/><feGaussianBlur in="SourceGraphic" stdDeviation="0"/><feOffset dx="6.000000" dy="4.000000"/><feComposite operator="in" in="A"/><feComposite in="SourceGraphic"/></filter><filter id="B" x="-.062" y="-.069" width="1.479" height="1.397" class="H"><feFlood result="A" class="I J"/><feGaussianBlur in="SourceGraphic" stdDeviation="0"/><feOffset dx="6.000000" dy="4.000000"/><feComposite operator="in" in="A"/><feComposite in="SourceGraphic"/></filter><filter id="C" x="-.096" y="-.055" width="1.735" height="1.317" class="H"><feFlood result="A" class="I J"/><feGaussianBlur in="SourceGraphic" stdDeviation="0"/><feOffset dx="6.000000" dy="4.000000"/><feComposite operator="in" in="A"/><feComposite in="SourceGraphic"/></filter><clipPath id="D"><circle cx="64" cy="64" r="60" stroke-dasharray="none" stroke-opacity="1" class="B C G"/></clipPath></defs><circle cx="64" cy="64" r="58.5" fill="#4c4c4c"/><path d="M33.663 49.598c-7.77 13.788-12.113 29.008-9.887 46.971 26.826 10.808 55.323 17.378 86.113 18.126 8.229-14.25 11.938-29.789 9.887-46.971-27.205-11.031-55.828-17.345-86.113-18.126z" clip-path="url(#D)" fill="#9a6fc7" stroke-width="3.546" filter="url(#A)" class="D E"/><g class="G"><circle cx="64" cy="64" r="60" class="B C"/><circle cx="59.158" cy="53.601" r="8" transform="rotate(11.887)" class="D E F K"/><circle cx="64" cy="64" r="60" class="B C"/><circle cx="115.158" cy="53.601" r="8" transform="rotate(11.887)" class="D E F K"/><circle cx="64" cy="64" r="60" class="B C"/><path d="M46.438 105.427c5.563-11.558 8.661-13.963 11.124-14.009 8.29.332 16.085 2.074 23.485 4.943 2.041 1.418 4.025 3.303 4.533 17.305" class="D E F K"/><g class="C"><circle cx="64" cy="64" r="60" class="B"/><path d="M67.244 64.842s-3.673 1.534-4.738 3.09a5.42 5.42 0 0 0-.824 3.914c.347 1.853 1.312 4.112 3.09 4.738 2.905 1.022 8.78-2.872 8.78-2.872s3.807 5.932 6.877 6.168c1.88.144 3.673-1.534 4.738-3.09a5.42 5.42 0 0 0 .824-3.914c-.347-1.853-3.09-4.738-3.09-4.738" stroke-linecap="round" class="D E F"/><circle cx="64" cy="64" r="60" class="B"/></g></g><circle cx="-112.658" cy="49.601" transform="matrix(-.978557 -.205979 -.205979 .978557 0 0)" r="2.5" fill="#fff" class="F"/><circle cx="64" cy="64" r="60" class="B C G"/><circle cx="-56.658" cy="49.601" transform="matrix(-.978557 -.205979 -.205979 .978557 0 0)" r="2.5" fill="#fff" class="F"/><circle cx="64" cy="64" r="60" class="B C G"/><g fill="#fff" stroke-width="2.117" class="D E"><path d="M63.608 15.753l-5.784 10.584c-.11-.968-.83-1.793-1.824-2.336-2.308-1.261-5.816-.708-6.897 1.271s-.52 3.98 1.788 5.241 5.785.764 7.404-2.198l3.898-7.133c.834 2.638 1.139 4.946.375 6.408-.315.603-.702 1.142-1.114 1.329 1.357.354 2.742-.052 3.773-1.939s-.236-7.371-1.618-11.227z" paint-order="stroke fill markers" filter="url(#B)"/><path d="M29.09 21.163l5.859 10.542c-.877-.424-1.959-.256-2.95.295-2.299 1.278-3.704 4.539-2.609 6.51s3.087 2.565 5.386 1.288 3.736-4.483 2.096-7.433l-3.949-7.105c2.676.703 4.79 1.679 5.618 3.105.342.589.59 1.204.529 1.652 1.024-.958 1.42-2.346.376-4.225s-6.358-3.736-10.356-4.628z" paint-order="stroke fill markers" filter="url(#C)"/></g></svg>